<svg xmlns="http://www.w3.org/2000/svg" viewBox="-16 -16 192 212" width="192" height="212" xmlns:c2pa="http://c2pa.org/manifest"><metadata><c2pa:manifest>AAAWgmp1bWIAAAAeanVtZGMycGEAEQAQgAAAqgA4m3EDYzJwYQAAABZcanVtYgAAAEdqdW1kYzJtYQARABCAAACqADibcQN1cm46YzJwYTpkZjQzMTZiNC1iMzRmLTQ5OGYtODg1Yy1mMzdiNjY3ZmQ3YjIAAAADl2p1bWIAAAApanVtZGMyYXMAEQAQgAAAqgA4m3EDYzJwYS5hc3NlcnRpb25zAAAAALxqdW1iAAAARGp1bWRjYm9yABEAEIAAAKoAOJtxE2MycGEuaW5ncmVkaWVudC52MwAAAAAYYzJzaPGzpsC7E50Sj8N94obX3JUAAABwY2JvcqNpZGM6Zm9ybWF0bWltYWdlL3N2Zyt4bWxqaW5zdGFuY2VJRHgseG1wOmlpZDpkNDU1MGM1My0yZDk1LTQxOGEtYjcyZC1hMGRiZjQ2ODI1OGJscmVsYXRpb25zaGlwaHBhcmVudE9mAAAB4mp1bWIAAABBanVtZGNib3IAEQAQgAAAqgA4m3ETYzJwYS5hY3Rpb25zLnYyAAAAABhjMnNoK+7DStCrY8cjrbAcHw0WSAAAAZljYm9yomdhY3Rpb25zgqJmYWN0aW9ua2MycGEub3BlbmVkanBhcmFtZXRlcnOha2luZ3JlZGllbnRzgaJjdXJseC1zZWxmI2p1bWJmPWMycGEuYXNzZXJ0aW9ucy9jMnBhLmluZ3JlZGllbnQudjNkaGFzaFggWSJm5UN6jT9jqWhQdstTslyWSMgWf8ACHWj81Y9Z772kZmFjdGlvbngdY29tLmFudGhyb3BpYy5jbGF1ZGUucHJvdmlkZWRqcGFyYW1ldGVyc6F4H2NvbS5hbnRocm9waWMub3JpZ2luLWNvbmZpZGVuY2VndW5rbm93bmtkZXNjcmlwdGlvbnhmQ2xhdWRlIHByb3ZpZGVkIHRoaXMgZmlsZSBhdCB0aGUgcmVxdWVzdCBvZiBhIHVzZXIgYW5kIG1heSBoYXZlIGNyZWF0ZWQgb3IgbW9kaWZpZWQgdGhlIGZpbGUgY29udGVudHMubXNvZnR3YXJlQWdlbnShZG5hbWVmQ2xhdWRlcmFsbEFjdGlvbnNJbmNsdWRlZPUAAADIanVtYgAAAEBqdW1kY2JvcgARABCAAACqADibcRNjMnBhLmhhc2guZGF0YQAAAAAYYzJzaF2yyw0QjVjTX03jhOJstbgAAACAY2JvcqVjYWxnZnNoYTI1NmNwYWRNAAAAAAAAAAAAAAAAAGRoYXNoWCCL2x08YDpScg8KyC8FwCu5ZYpS3RrmPkZ/tYaUEf9N3mRuYW1lbmp1bWJmIG1hbmlmZXN0amV4Y2x1c2lvbnOBomVzdGFydBiaZmxlbmd0aBkeBAAAAj5qdW1iAAAAJ2p1bWRjMmNsABEAEIAAAKoAOJtxA2MycGEuY2xhaW0udjIAAAACD2Nib3KlY2FsZ2ZzaGEyNTZpc2lnbmF0dXJleE1zZWxmI2p1bWJmPS9jMnBhL3VybjpjMnBhOmRmNDMxNmI0LWIzNGYtNDk4Zi04ODVjLWYzN2I2NjdmZDdiMi9jMnBhLnNpZ25hdHVyZWppbnN0YW5jZUlEeCx4bXA6aWlkOmYwMGQ3Y2E5LWVhZWUtNDZjMC1iZTM2LWUwM2JkOWY5MjBjOXJjcmVhdGVkX2Fzc2VydGlvbnODomN1cmx4LXNlbGYjanVtYmY9YzJwYS5hc3NlcnRpb25zL2MycGEuaW5ncmVkaWVudC52M2RoYXNoWCBZImblQ3qNP2OpaFB2y1OyXJZIyBZ/wAIdaPzVj1nvvaJjdXJseCpzZWxmI2p1bWJmPWMycGEuYXNzZXJ0aW9ucy9jMnBhLmFjdGlvbnMudjJkaGFzaFggkxwo9eJDJocwNK/2xk09Ian3tRaM1NnGzmEfZGN4v4GiY3VybHgpc2VsZiNqdW1iZj1jMnBhLmFzc2VydGlvbnMvYzJwYS5oYXNoLmRhdGFkaGFzaFgggw/AjiQ3yXWNIsGn3kX5LuYwYluF+JhmFjqvB3dx1kx0Y2xhaW1fZ2VuZXJhdG9yX2luZm+jZG5hbWVvQW50aHJvcGljIEZpbGVzZ3ZlcnNpb25lMS4wLjBrc3BlY1ZlcnNpb25lMi40LjAAABA4anVtYgAAAChqdW1kYzJjcwARABCAAACqADibcQNjMnBhLnNpZ25hdHVyZQAAABAIY2JvctKEWQISogEmGCFZAgowggIGMIIBjaADAgECAhRA5aAK7sI50L64g/oGQgU9Z1UTADAKBggqhkjOPQQDAzBJMRcwFQYDVQQKEw5BbnRocm9waWMsIFBCQzEuMCwGA1UEAxMlQW50aHJvcGljIENvbnRlbnQgQ3JlZGVudGlhbHMgUm9vdCBDQTAeFw0yNjA4MDcxODQzNTZaFw0yODA4MDYxOTQzNTZaMEQxFzAVBgNVBAoTDkFudGhyb3BpYywgUEJDMSkwJwYDVQQDEyBBbnRocm9waWMgQ2xhdWRlIENvbnRlbnQgU2lnbmluZzBZMBMGByqGSM49AgEGCCqGSM49AwEHA0IABJh6CmvLUBgFFNU0vUKlOVtE6djd17L5SuwX0LemFisBM3dkd/3cyjxFA3Qo5S46fX0/ihY0VZ7mfb9KF703t5OjWDBWMA4GA1UdDwEB/wQEAwIHgDAVBgNVHSUEDjAMBgorBgEEAYPoXgIBMAwGA1UdEwEB/wQCMAAwHwYDVR0jBBgwFoAUzlHiBIFOZFsj+OPEz5o+nMHXXMIwCgYIKoZIzj0EAwMDZwAwZAIwMXMdFJ4BetLLVY7ORuE9noqbbAZOZn/aArXyTwFAZfKrPzxF2vPoJNf1+UCdg1XGAjBwX1zd9WGqYkqmL5SFqw1QySjr1zJfpJM9+1rdDwSPLMOPOjKuiXjoU/pUUeG9RwmhY3BhZFkNngAAAAAAAAAAAAAAAAAAAAAAAAAAAAAAAAAAAAAAAAAAAAAAAAAAAAAAAAAAAAAAAAAAAAAAAAAAAAAAAAAAAAAAAAAAAAAAAAAAAAAAAAAAAAAAAAAAAAAAAAAAAAAAAAAAAAAAAAAAAAAAAAAAAAAAAAAAAAAAAAAAAAAAAAAAAAAAAAAAAAAAAAAAAAAAAAAAAAAAAAAAAAAAAAAAAAAAAAAAAAAAAAAAAAAAAAAAAAAAAAAAAAAAAAAAAAAAAAAAAAAAAAAAAAAAAAAAAAAAAAAAAAAAAAAAAAAAAAAAAAAAAAAAAAAAAAAAAAAAAAAAAAAAAAAAAAAAAAAAAAAAAAAAAAAAAAAAAAAAAAAAAAAAAAAAAAAAAAAAAAAAAAAAAAAAAAAAAAAAAAAAAAAAAAAAAAAAAAAAAAAAAAAAAAAAAAAAAAAAAAAAAAAAAAAAAAAAAAAAAAAAAAAAAAAAAAAAAAAAAAAAAAAAAAAAAAAAAAAAAAAAAAAAAAAAAAAAAAAAAAAAAAAAAAAAAAAAAAAAAAAAAAAAAAAAAAAAAAAAAAAAAAAAAAAAAAAAAAAAAAAAAAAAAAAAAAAAAAAAAAAAAAAAAAAAAAAAAAAAAAAAAAAAAAAAAAAAAAAAAAAAAAAAAAAAAAAAAAAAAAAAAAAAAAAAAAAAAAAAAAAAAAAAAAAAAAAAAAAAAAAAAAAAAAAAAAAAAAAAAAAAAAAAAAAAAAAAAAAAAAAAAAAAAAAAAAAAAAAAAAAAAAAAAAAAAAAAAAAAAAAAAAAAAAAAAAAAAAAAAAAAAAAAAAAAAAAAAAAAAAAAAAAAAAAAAAAAAAAAAAAAAAAAAAAAAAAAAAAAAAAAAAAAAAAAAAAAAAAAAAAAAAAAAAAAAAAAAAAAAAAAAAAAAAAAAAAAAAAAAAAAAAAAAAAAAAAAAAAAAAAAAAAAAAAAAAAAAAAAAAAAAAAAAAAAAAAAAAAAAAAAAAAAAAAAAAAAAAAAAAAAAAAAAAAAAAAAAAAAAAAAAAAAAAAAAAAAAAAAAAAAAAAAAAAAAAAAAAAAAAAAAAAAAAAAAAAAAAAAAAAAAAAAAAAAAAAAAAAAAAAAAAAAAAAAAAAAAAAAAAAAAAAAAAAAAAAAAAAAAAAAAAAAAAAAAAAAAAAAAAAAAAAAAAAAAAAAAAAAAAAAAAAAAAAAAAAAAAAAAAAAAAAAAAAAAAAAAAAAAAAAAAAAAAAAAAAAAAAAAAAAAAAAAAAAAAAAAAAAAAAAAAAAAAAAAAAAAAAAAAAAAAAAAAAAAAAAAAAAAAAAAAAAAAAAAAAAAAAAAAAAAAAAAAAAAAAAAAAAAAAAAAAAAAAAAAAAAAAAAAAAAAAAAAAAAAAAAAAAAAAAAAAAAAAAAAAAAAAAAAAAAAAAAAAAAAAAAAAAAAAAAAAAAAAAAAAAAAAAAAAAAAAAAAAAAAAAAAAAAAAAAAAAAAAAAAAAAAAAAAAAAAAAAAAAAAAAAAAAAAAAAAAAAAAAAAAAAAAAAAAAAAAAAAAAAAAAAAAAAAAAAAAAAAAAAAAAAAAAAAAAAAAAAAAAAAAAAAAAAAAAAAAAAAAAAAAAAAAAAAAAAAAAAAAAAAAAAAAAAAAAAAAAAAAAAAAAAAAAAAAAAAAAAAAAAAAAAAAAAAAAAAAAAAAAAAAAAAAAAAAAAAAAAAAAAAAAAAAAAAAAAAAAAAAAAAAAAAAAAAAAAAAAAAAAAAAAAAAAAAAAAAAAAAAAAAAAAAAAAAAAAAAAAAAAAAAAAAAAAAAAAAAAAAAAAAAAAAAAAAAAAAAAAAAAAAAAAAAAAAAAAAAAAAAAAAAAAAAAAAAAAAAAAAAAAAAAAAAAAAAAAAAAAAAAAAAAAAAAAAAAAAAAAAAAAAAAAAAAAAAAAAAAAAAAAAAAAAAAAAAAAAAAAAAAAAAAAAAAAAAAAAAAAAAAAAAAAAAAAAAAAAAAAAAAAAAAAAAAAAAAAAAAAAAAAAAAAAAAAAAAAAAAAAAAAAAAAAAAAAAAAAAAAAAAAAAAAAAAAAAAAAAAAAAAAAAAAAAAAAAAAAAAAAAAAAAAAAAAAAAAAAAAAAAAAAAAAAAAAAAAAAAAAAAAAAAAAAAAAAAAAAAAAAAAAAAAAAAAAAAAAAAAAAAAAAAAAAAAAAAAAAAAAAAAAAAAAAAAAAAAAAAAAAAAAAAAAAAAAAAAAAAAAAAAAAAAAAAAAAAAAAAAAAAAAAAAAAAAAAAAAAAAAAAAAAAAAAAAAAAAAAAAAAAAAAAAAAAAAAAAAAAAAAAAAAAAAAAAAAAAAAAAAAAAAAAAAAAAAAAAAAAAAAAAAAAAAAAAAAAAAAAAAAAAAAAAAAAAAAAAAAAAAAAAAAAAAAAAAAAAAAAAAAAAAAAAAAAAAAAAAAAAAAAAAAAAAAAAAAAAAAAAAAAAAAAAAAAAAAAAAAAAAAAAAAAAAAAAAAAAAAAAAAAAAAAAAAAAAAAAAAAAAAAAAAAAAAAAAAAAAAAAAAAAAAAAAAAAAAAAAAAAAAAAAAAAAAAAAAAAAAAAAAAAAAAAAAAAAAAAAAAAAAAAAAAAAAAAAAAAAAAAAAAAAAAAAAAAAAAAAAAAAAAAAAAAAAAAAAAAAAAAAAAAAAAAAAAAAAAAAAAAAAAAAAAAAAAAAAAAAAAAAAAAAAAAAAAAAAAAAAAAAAAAAAAAAAAAAAAAAAAAAAAAAAAAAAAAAAAAAAAAAAAAAAAAAAAAAAAAAAAAAAAAAAAAAAAAAAAAAAAAAAAAAAAAAAAAAAAAAAAAAAAAAAAAAAAAAAAAAAAAAAAAAAAAAAAAAAAAAAAAAAAAAAAAAAAAAAAAAAAAAAAAAAAAAAAAAAAAAAAAAAAAAAAAAAAAAAAAAAAAAAAAAAAAAAAAAAAAAAAAAAAAAAAAAAAAAAAAAAAAAAAAAAAAAAAAAAAAAAAAAAAAAAAAAAAAAAAAAAAAAAAAAAAAAAAAAAAAAAAAAAAAAAAAAAAAAAAAAAAAAAAAAAAAAAAAAAAAAAAAAAAAAAAAAAAAAAAAAAAAAAAAAAAAAAAAAAAAAAAAAAAAAAAAAAAAAAAAAAAAAAAAAAAAAAAAAAAAAAAAAAAAAAAAAAAAAAAAAAAAAAAAAAAAAAAAAAAAAAAAAAAAAAAAAAAAAAAAAAAAAAAAAAAAAAAAAAAAAAAAAAAAAAAAAAAAAAAAAAAAAAAAAAAAAAAAAAAAAAAAAAAAAAAAAAAAAAAAAAAAAAAAAAAAAAAAAAAAAAAAAAAAAAAAAAAAAAAAAAAAAAAAAAAAAAAAAAAAAAAAAAAAAAAAAAAAAAAAAAAAAAAAAAAAAAAAAAAAAAAAAAAAAAAAAAAAAAAAAAAAAAAAAAAAAAAAAAAAAAAAAAAAAAAAAAAAAAAAAAAAAAAAAAAAAAAAAAAAAAAAAAAAAAAAAAAAAAAAAAAAAAAAAAAAAAAAAAAAAAAAAAAAAAAAAAAAAAAAAAAAAAAAAAAAAAAAAAAAAAAAAAAAAAAAAAAAAAAAAAAAAAAAAAAAAAAAAAAAAAAAAAAAAAAAAAAAAAAAAAAAAAAAAAAAAAAAAAAAAAAAAAAAAAAAAAAAAAAAAAAAAAAAAAAAAAAAAAAAAAAAAAAAAAAAAAAAAAAAAAAAAAAAAAAAAAAAAAAAAAAAAAAAAAAAAAAAAAAAAAAAAAAAAAAAAAAAAAAAAAAAAAAAAAAAAAAAAAAAAAAAAAAAAAAAAAAAAAAAAAAAAAAAAAAAAAAAAAAAAAAAAAAAAAAAAAAAAAAAAAAAAAAAAAAAAAAAAAAAAAAAAAAAAAAAAAAAAAAAAAAAAAAAAAAAAAAAAAAAAAAAAAAAAAAAAAAAAAAAAAAAAAAAAAAAAAAAAAAAAAAAAAAAAAAAAAAAAAAAAAAAAAAAAAAAAAAAAAAAAAAAAAAAAAAAAAAAAAAAAAAAAAAAAAAAAAAAAAAAAAAAAAAAAAAAAAAAAAAAAAAAAAAAAAAAAAAAAAAAAAAAAAAAAAAAAAAAAAAAAAAAAAAAAAAAAAAAAAAAAAAAAAAAAAAAAAAAAAAAAAAAAAAAAAAAAAAAAAAAAAAAAAAAAAAAAAAAAAAAAAAAAAAAAAAAAAAAAAAAAAAAAAAAAAAAAAAAAAAAAAAAAAAAAAAAAAAAAAAAAAAAAAAAAAAAAAAAAAAAAAAAAAAAAAAAAAAAAAAAAAAAAAAAAAAAAAAAAAAAAAAAAAAAAAAAAAAAAAAAAAAAAAAAAAAAAAAAAAAAAAAAAAAAAAAAAAAAAAAAAAAAAAAAAAAAAAAAAAAAAAAAAAAAAAAAAAAAAAAAAAAAAAAAAAAAAAAAAAAAAAAAAAAAAAAAAAAAAAAAAAAAAAAAAAAAAAAAAAAAAAAAAAAAAAAAAAAAAAAAAAAAAAAAAAAAAAAAAAAAAAAAAAAAAAAAAAAAAAAAAAAAAAAAAAAAAAAAAAAAAAAAAAAAAAAAAAAAAAAAAAAAAAAAAAAAAAAAAAAAAAAAAAAAAAAAAAAAAAAAAAAAAAAAAAAAAAAAAAAAAAAAAAAAAAAAAAAAAAAAAAAAAAAAAAAAAAAAAAAAAAAAAAAAAAAAAAAAAAAAAAAAAAAAAAAAAAAAAAAAAAAAAAAAAAAAAAAAAAAAAAAAAPZYQDj2+IpYcrClF8iAd0DuIT0bwl51HcNBE3O40JW6X8i9PvpfidY7nRdAh3T06qqDbx0njA4zWnwu0MoLD3+ZGBs=</c2pa:manifest></metadata><g transform="translate(0 0.00) translate(80 178) scale(1.000 1.000) translate(-80 -178)">
  <defs>
    <clipPath id="k0L"><path d="M55 62 C55 58 77 58 77 62 C77 73 55 73 55 62 Z"></path></clipPath>
    <clipPath id="k0R"><path d="M105 62 C105 58 83 58 83 62 C83 73 105 73 105 62 Z"></path></clipPath>
    <clipPath id="k0M"><path d="M0 0"></path></clipPath>
  </defs>
  <ellipse cx="80" cy="176" rx="54" ry="4" fill="rgba(0,0,0,0.45)"></ellipse>
  <g display="none">
    <path d="M126 34 L112 176" stroke="#2C2C33" stroke-width="5" stroke-linecap="round"></path>
    <path d="M126 34 L112 176" stroke="rgba(255,255,255,0.18)" stroke-width="1.2" transform="translate(1.6 0)"></path>
    <path d="M128 38 C104 12 70 10 40 26 C68 22 98 28 120 50 Z" fill="#CFCFD6"></path>
    <path d="M40 26 C68 22 98 28 120 50" stroke="#C5F25C" stroke-width="2" fill="none"></path>
    <path d="M58 22 C80 16 100 20 116 34" stroke="#fff" stroke-width="1.4" fill="none" opacity=".6"></path>
  </g>
  <g>
    <path d="M36 104 C27 128 21 150 15 172 L30 165 L40 176 L54 167 L67 177 L80 168 L93 177 L106 167 L120 176 L130 165 L145 172 C139 150 133 128 124 104 Z" fill="#1A1A1F"></path>
    <path d="M36 104 C28 128 22 150 16 171 L30 165 L36 171 C38 148 40 126 46 108 Z" fill="#27272E"></path>
    <path d="M62 116 C60 134 58 152 55 166 M98 116 C100 134 102 152 105 166 M80 122 L80 166" stroke="#0A0A0C" stroke-width="2.4" fill="none" stroke-linecap="round"></path>
    <path d="M124 104 C133 128 139 150 145 172" stroke="#C5F25C" stroke-width="2" fill="none" opacity=".6"></path>
    <path d="M68 112 L80 122 L92 112" stroke="#3A3A42" stroke-width="1.6" fill="none"></path>
    <circle cx="80" cy="127" r="7.5" fill="#C5F25C"></circle><circle cx="80" cy="127" r="4.4" fill="none" stroke="#7FA02A" stroke-width="1.5"></circle><path d="M76 123 Q78 121 81 121" stroke="#EFFFC2" stroke-width="1.3" fill="none" stroke-linecap="round"></path>
    <path d="M46 108 Q37 136 40 148" stroke="#202026" stroke-width="16" stroke-linecap="round" fill="none"></path>
    <path d="M114 108 Q122 136 118 148" stroke="#202026" stroke-width="16" stroke-linecap="round" fill="none"></path>
    <path d="M114 108 Q122 136 118 148" stroke="rgba(255,255,255,0.16)" stroke-width="1.2" fill="none" transform="translate(5 -2)"></path>
  </g>
  <g transform="rotate(-3.00 80 104)">
    <g transform="rotate(-26 30 40)"><rect x="17" y="20" width="24" height="33" rx="3.5" fill="#0A0A0B"></rect><rect x="16" y="19" width="24" height="33" rx="3.5" fill="#FAF8F2"></rect><rect x="18.5" y="21.5" width="19" height="28" rx="2" fill="none" stroke="#C5F25C" stroke-width="1.2"></rect><text x="20.5" y="30" font-family="Unbounded,Geist,sans-serif" font-weight="800" font-size="8" fill="#0A0A0B">A</text><path d="M28 34 C24 38 23 41 26 42 C27 42.5 28 41.6 28 41 L27 45 L29 45 L28 41 C28 41.6 29 42.5 30 42 C33 41 32 38 28 34 Z" fill="#0A0A0B"></path><path d="M18 21 L36 21" stroke="#fff" stroke-width="1" opacity=".9"></path></g>
    <path d="M80 8 C108 8 126 30 130 62 C132 84 128 104 122 118 C108 126 52 126 38 118 C32 104 28 84 30 62 C34 30 52 8 80 8 Z" fill="#232329"></path>
    <path d="M90 10 C106 4 120 6 131 18 C118 13 106 15 98 19 Z" fill="#232329"></path>
    <path d="M38 40 C33 56 32 74 35 92 C37 104 41 112 46 117 C40 100 38 80 40 62 C41 52 44 44 49 34 Z" fill="#34343C"></path>
    <path d="M122 30 C130 44 133 64 131 86 C130 98 127 108 123 116" stroke="#C5F25C" stroke-width="2.2" fill="none" stroke-linecap="round" opacity=".75"></path><path d="M54 18 C64 11 84 9 100 13" stroke="#fff" stroke-width="3" fill="none" stroke-linecap="round" opacity=".3"></path>
    <path d="M80 22 C100 22 114 38 116 62 C118 86 110 104 100 111 L60 111 C50 104 42 86 44 62 C46 38 60 22 80 22 Z" fill="#050506" stroke="#2E2E36" stroke-width="1.5"></path>
    <path d="M80 23 C103 23 115 40 115 60 C115 79 104 93 92 99 C86 102 74 102 68 99 C56 93 45 79 45 60 C45 40 57 23 80 23 Z" fill="#F2EFE6"></path>
    <path d="M100 31 C110 40 115 50 115 60 C115 79 104 93 92 99 C88 101 84 101.5 81 101.5 C92 96 104 84 106 66 C107 52 105 40 100 31 Z" fill="#D9D4C8"></path>
    <path d="M58 33 C64 27 72 25 80 25" stroke="#fff" stroke-width="3" fill="none" stroke-linecap="round" opacity=".8"></path>
    <path d="M51 76 Q53 86 60 92" stroke="#fff" stroke-width="2.4" fill="none" stroke-linecap="round" opacity=".55"></path>
    <path d="M46 50 Q80 31 114 50 Q80 42 46 54 Z" fill="rgba(140,190,40,0.28)"></path>
    <path d="M33 39 Q80 15 127 39" stroke="#0E0E10" stroke-width="7" fill="none" stroke-linecap="round"></path>
    <path d="M33 39 Q80 15 127 39" stroke="#5E7A14" stroke-width="4" fill="none" stroke-linecap="round"></path>
    <path d="M30 43 Q80 19 130 43 Q132 49 125 50 Q80 30 35 50 Q28 49 30 43 Z" fill="rgba(197,242,92,0.62)" stroke="#C5F25C" stroke-width="1.4"></path>
    <path d="M38 43 Q80 24 122 43" stroke="#fff" stroke-width="1.8" fill="none" stroke-linecap="round" opacity=".75"></path>
    <path d="M36 48 Q80 28 124 48" stroke="#3E5410" stroke-width="1.4" fill="none" opacity=".7"></path>
    <g transform="translate(0 62) scale(1 1) translate(0 -62)"><path d="M55 62 C55 58 77 58 77 62 C77 73 55 73 55 62 Z" fill="#0A0A0B"></path>
    <path d="M105 62 C105 58 83 58 83 62 C83 73 105 73 105 62 Z" fill="#0A0A0B"></path>
    <circle cx="69" cy="62" r="2.8" fill="#fff"></circle>
    <circle cx="97" cy="62" r="2.8" fill="#fff"></circle>
    <circle cx="63" cy="66" r="1.2" fill="#fff"></circle>
    <circle cx="91" cy="66" r="1.2" fill="#fff"></circle>
    <path display="none" d="M56 66 Q66 50 76 66" stroke="#0A0A0B" stroke-width="6.5" fill="none" stroke-linecap="round"></path>
    <path display="none" d="M84 66 Q94 50 104 66" stroke="#0A0A0B" stroke-width="6.5" fill="none" stroke-linecap="round"></path></g>
    <path d="M80 77.5 C78.4 75.6 75.8 76.6 76.4 79 C77 80.8 78.6 82 80 83 C81.4 82 83 80.8 83.6 79 C84.2 76.6 81.6 75.6 80 77.5 Z" fill="#0A0A0B"></path>
    <path d="M60 87 Q80 89 100 84" stroke="#0A0A0B" stroke-width="3.2" fill="none" stroke-linecap="round"></path>
    <path d="M67.2 83.0 Q68.2 87.5 67.2 92.0 M75.6 83.0 Q76.6 87.5 75.6 92.0 M84.4 82.3 Q85.4 86.8 84.4 91.3 M92.8 81.1 Q93.8 85.6 92.8 90.1" stroke="#0A0A0B" stroke-width="2.4" fill="none" stroke-linecap="round"></path>
    <path display="none" d="M0 0" fill="#0A0A0B"></path>
    <g display="none" clip-path="url(#k0M)"><path d="M0 0" fill="#F2EFE6"></path></g>
    <g transform=""><path d="M44 57 Q80 51 116 57 Q117 75 101 75 Q88 75 86 64 Q80 61 74 64 Q72 75 59 75 Q43 75 44 57 Z" fill="#070707" stroke="#2A2A30" stroke-width="1.2"></path><path d="M53 62 Q58 59 64 60 M89 62 Q94 59 100 60" stroke="#C5F25C" stroke-width="2.6" fill="none" stroke-linecap="round"></path><path d="M106 60 L110 66 M68 60 L71 64" stroke="#fff" stroke-width="1.6" stroke-linecap="round" opacity=".55"></path></g>
    <path display="none" d="M104 62 Q108 64 106 68 M112 62 Q108 64 110 68 M103 67 Q107 64 111 67" stroke="#F2EFE6" stroke-width="1.8" fill="none" stroke-linecap="round"></path>
  </g>
  <path display="none" d="M128 30 L130.5 37.5 L138 40 L130.5 42.5 L128 50 L125.5 42.5 L118 40 L125.5 37.5 Z" fill="#C5F25C"></path>
  <path display="none" d="M62 2 L66 10 M80 -2 L80 7 M98 2 L94 10" stroke="#F2EFE6" stroke-width="2.4" stroke-linecap="round"></path>
  <g display="none"><path d="M140 110 Q144 80 136 60" stroke="#C5F25C" stroke-width="1.6" fill="none" stroke-linecap="round" stroke-dasharray="2 5" opacity=".55"></path><g transform="translate(0 -46)"><ellipse cx="133" cy="106" rx="10" ry="4" fill="#7FA02A"></ellipse><ellipse cx="133" cy="105" rx="10" ry="4" fill="#C5F25C" stroke="#0A0A0B" stroke-width="1"></ellipse><ellipse cx="133" cy="105" rx="5.5" ry="2" fill="none" stroke="#5E7A14" stroke-width="1.6"></ellipse><path d="M127 101 Q130 99 134 99" stroke="#F4FFD0" stroke-width="1.8" fill="none" stroke-linecap="round"></path></g></g>
  <g display="none"><rect x="122" y="80" width="12" height="22" rx="5" fill="#2C2C33" stroke="#4A4A52"></rect><rect x="116" y="100" width="24" height="9" rx="2.5" fill="#C5F25C"></rect><rect x="116" y="106" width="24" height="3" fill="#8FB52E"></rect></g>
  <g display="none" transform="rotate(-12 120 134)"><rect x="100" y="120" width="40" height="30" rx="3" fill="#2C2C33"></rect><rect x="102" y="118" width="36" height="28" rx="2" fill="#F2EFE6"></rect><path d="M120 119 L120 145" stroke="#BDB8AC" stroke-width="1.5"></path><path d="M106 126 L116 126 M106 131 L116 131 M106 136 L114 136 M124 126 L134 126 M124 131 L132 131" stroke="#8A8A8A" stroke-width="1.5"></path><rect x="128" y="114" width="5" height="12" fill="#C5F25C"></rect></g>
  <g display="none"><path d="M131 104 L127 116" stroke="#4A4A52" stroke-width="5" stroke-linecap="round"></path><circle cx="137" cy="90" r="13" fill="rgba(197,242,92,0.16)" stroke="#D9D9DE" stroke-width="4"></circle><path d="M130 84 Q133 80 138 80" stroke="#fff" stroke-width="2" fill="none" stroke-linecap="round"></path></g>
  <g display="none"><circle cx="136" cy="98" r="12" fill="#8FB52E"></circle><circle cx="135" cy="96" r="12" fill="#C5F25C"></circle><circle cx="135" cy="96" r="7.5" fill="none" stroke="#7FA02A" stroke-width="1.8"></circle><path d="M129 90 Q132 87 136 87" stroke="#EFFFC2" stroke-width="1.6" fill="none" stroke-linecap="round"></path></g>
  <g display="none"><path d="M129 98 Q126 92 133 91 L145 91 Q151 92 147 98 Q160 108 156 124 Q153 132 138 132 Q123 132 120 124 Q116 108 129 98 Z" fill="#C5F25C"></path><path d="M142 100 Q154 110 151 124 Q149 130 140 131 Q150 122 146 104 Z" fill="#9CC23A"></path><path d="M129 98 L147 98" stroke="#7FA02A" stroke-width="2.4"></path><path d="M133 116 L143 116 M138 110 L138 122" stroke="#5E7A14" stroke-width="2.2" stroke-linecap="round"></path></g>
  <g display="none"><rect x="112" y="110" width="20" height="24" rx="4" fill="#F2EFE6"></rect><rect x="126" y="110" width="6" height="24" rx="3" fill="#D2CDC1"></rect><path d="M132 115 Q140 117 132 126" stroke="#F2EFE6" stroke-width="3" fill="none"></path><path d="M117 104 Q114 99 118 95 Q121 91 118 86 M124 104 Q121 99 125 95" stroke="#5A5A60" stroke-width="1.8" fill="none" stroke-linecap="round"></path></g>
  <g transform="translate(40 142.0) rotate(10) scale(-1.75 1.75)">
    <ellipse cx="0" cy="7.6" rx="6.4" ry="3.4" fill="#141418"></ellipse>
    <g display="none" stroke="#0A0A0B" stroke-width=".8"><rect x="-11.4" y="-3.5" width="3.5" height="9" rx="1.75" transform="rotate(-50 -8 1)" fill="#F2EFE6"></rect><g transform="rotate(0 0 -5)"><rect x="-6.3" y="-15" width="3.2" height="11" rx="1.6" transform="rotate(-11 -4.6 -4)" fill="#F2EFE6"></rect><rect x="-2.6" y="-17" width="3.2" height="13" rx="1.6" transform="rotate(-3 -1 -4)" fill="#F2EFE6"></rect><rect x="1" y="-16.5" width="3.2" height="12.5" rx="1.6" transform="rotate(5 2.6 -4)" fill="#F2EFE6"></rect><rect x="4.5" y="-13.5" width="3" height="10" rx="1.5" transform="rotate(14 6 -4)" fill="#D9D4C8"></rect><path d="M-6.2 -9.6 l2.4 -.5 M-2.4 -11 l2.6 0 M1.5 -10.6 l2.6 .3 M5.2 -8.6 l2.2 .6" stroke-width=".75" fill="none"></path></g><rect x="-6.8" y="-6.5" width="13.6" height="13" rx="5.2" fill="#F2EFE6"></rect><path d="M3.4 -3.5 Q6 -1 5.2 4" stroke="#D2CDC1" stroke-width="2.4" fill="none" stroke-linecap="round"></path><path d="M-5 -2.5 Q-4 -4.6 -1.8 -5" stroke="#fff" stroke-width="1.2" fill="none" stroke-linecap="round"></path></g>
    <g stroke="#0A0A0B" stroke-width=".8"><circle cx="-4.4" cy="-5.6" r="2.1" fill="#F2EFE6"></circle><circle cx="-1.4" cy="-6.3" r="2.1" fill="#F2EFE6"></circle><circle cx="1.7" cy="-6.2" r="2.1" fill="#F2EFE6"></circle><circle cx="4.6" cy="-5.4" r="2" fill="#D9D4C8"></circle><rect x="-6.8" y="-6.5" width="13.6" height="13" rx="5.2" fill="#F2EFE6"></rect><path d="M3.4 -3.5 Q6 -1 5.2 4" stroke="#D2CDC1" stroke-width="2.4" fill="none" stroke-linecap="round"></path><path d="M-2.9 -4.6 v3 M0.2 -4.9 v3.2 M3.2 -4.5 v3" stroke-width=".75"></path><rect x="-8.6" y="-0.4" width="9.6" height="3.7" rx="1.85" fill="#F2EFE6"></rect><path d="M-5 -2.5 Q-4 -4.6 -1.8 -5" stroke="#fff" stroke-width="1.2" fill="none" stroke-linecap="round"></path></g>
    <g display="none" stroke="#0A0A0B" stroke-width=".8"><rect x="-6.2" y="-19" width="3.4" height="14" rx="1.7" fill="#F2EFE6"></rect><path d="M-6 -12.5 l3 0" stroke-width=".75"></path><circle cx="-1.4" cy="-6.3" r="2.1" fill="#F2EFE6"></circle><circle cx="1.7" cy="-6.2" r="2.1" fill="#F2EFE6"></circle><circle cx="4.6" cy="-5.4" r="2" fill="#D9D4C8"></circle><rect x="-6.8" y="-6.5" width="13.6" height="13" rx="5.2" fill="#F2EFE6"></rect><path d="M3.4 -3.5 Q6 -1 5.2 4" stroke="#D2CDC1" stroke-width="2.4" fill="none" stroke-linecap="round"></path><path d="M0.2 -4.9 v3.2 M3.2 -4.5 v3" stroke-width=".75"></path><rect x="-8.6" y="-0.4" width="9.6" height="3.7" rx="1.85" fill="#F2EFE6"></rect><path d="M-5 -2.5 Q-4 -4.6 -1.8 -5" stroke="#fff" stroke-width="1.2" fill="none" stroke-linecap="round"></path></g>
    <g display="none" stroke="#0A0A0B" stroke-width=".8"><rect x="-9.8" y="-17" width="3.8" height="13" rx="1.9" transform="rotate(-6 -8 -4)" fill="#F2EFE6"></rect><circle cx="-4.4" cy="-5.6" r="2.1" fill="#F2EFE6"></circle><circle cx="-1.4" cy="-6.3" r="2.1" fill="#F2EFE6"></circle><circle cx="1.7" cy="-6.2" r="2.1" fill="#F2EFE6"></circle><circle cx="4.6" cy="-5.4" r="2" fill="#D9D4C8"></circle><rect x="-6.8" y="-6.5" width="13.6" height="13" rx="5.2" fill="#F2EFE6"></rect><path d="M3.4 -3.5 Q6 -1 5.2 4" stroke="#D2CDC1" stroke-width="2.4" fill="none" stroke-linecap="round"></path><path d="M-2.9 -4.6 v3 M0.2 -4.9 v3.2 M3.2 -4.5 v3" stroke-width=".75"></path><path d="M-5 -2.5 Q-4 -4.6 -1.8 -5" stroke="#fff" stroke-width="1.2" fill="none" stroke-linecap="round"></path></g>
  </g><g transform="translate(118 142.0) rotate(-10.0) scale(1.750)">
    <ellipse cx="0" cy="7.6" rx="6.4" ry="3.4" fill="#141418"></ellipse>
    <g display="none" stroke="#0A0A0B" stroke-width=".8"><rect x="-11.4" y="-3.5" width="3.5" height="9" rx="1.75" transform="rotate(-50 -8 1)" fill="#F2EFE6"></rect><g transform="rotate(0 0 -5)"><rect x="-6.3" y="-15" width="3.2" height="11" rx="1.6" transform="rotate(-11 -4.6 -4)" fill="#F2EFE6"></rect><rect x="-2.6" y="-17" width="3.2" height="13" rx="1.6" transform="rotate(-3 -1 -4)" fill="#F2EFE6"></rect><rect x="1" y="-16.5" width="3.2" height="12.5" rx="1.6" transform="rotate(5 2.6 -4)" fill="#F2EFE6"></rect><rect x="4.5" y="-13.5" width="3" height="10" rx="1.5" transform="rotate(14 6 -4)" fill="#D9D4C8"></rect><path d="M-6.2 -9.6 l2.4 -.5 M-2.4 -11 l2.6 0 M1.5 -10.6 l2.6 .3 M5.2 -8.6 l2.2 .6" stroke-width=".75" fill="none"></path></g><rect x="-6.8" y="-6.5" width="13.6" height="13" rx="5.2" fill="#F2EFE6"></rect><path d="M3.4 -3.5 Q6 -1 5.2 4" stroke="#D2CDC1" stroke-width="2.4" fill="none" stroke-linecap="round"></path><path d="M-5 -2.5 Q-4 -4.6 -1.8 -5" stroke="#fff" stroke-width="1.2" fill="none" stroke-linecap="round"></path></g>
    <g stroke="#0A0A0B" stroke-width=".8"><circle cx="-4.4" cy="-5.6" r="2.1" fill="#F2EFE6"></circle><circle cx="-1.4" cy="-6.3" r="2.1" fill="#F2EFE6"></circle><circle cx="1.7" cy="-6.2" r="2.1" fill="#F2EFE6"></circle><circle cx="4.6" cy="-5.4" r="2" fill="#D9D4C8"></circle><rect x="-6.8" y="-6.5" width="13.6" height="13" rx="5.2" fill="#F2EFE6"></rect><path d="M3.4 -3.5 Q6 -1 5.2 4" stroke="#D2CDC1" stroke-width="2.4" fill="none" stroke-linecap="round"></path><path d="M-2.9 -4.6 v3 M0.2 -4.9 v3.2 M3.2 -4.5 v3" stroke-width=".75"></path><rect x="-8.6" y="-0.4" width="9.6" height="3.7" rx="1.85" fill="#F2EFE6"></rect><path d="M-5 -2.5 Q-4 -4.6 -1.8 -5" stroke="#fff" stroke-width="1.2" fill="none" stroke-linecap="round"></path></g>
    <g display="none" stroke="#0A0A0B" stroke-width=".8"><rect x="-6.2" y="-19" width="3.4" height="14" rx="1.7" fill="#F2EFE6"></rect><path d="M-6 -12.5 l3 0" stroke-width=".75"></path><circle cx="-1.4" cy="-6.3" r="2.1" fill="#F2EFE6"></circle><circle cx="1.7" cy="-6.2" r="2.1" fill="#F2EFE6"></circle><circle cx="4.6" cy="-5.4" r="2" fill="#D9D4C8"></circle><rect x="-6.8" y="-6.5" width="13.6" height="13" rx="5.2" fill="#F2EFE6"></rect><path d="M3.4 -3.5 Q6 -1 5.2 4" stroke="#D2CDC1" stroke-width="2.4" fill="none" stroke-linecap="round"></path><path d="M0.2 -4.9 v3.2 M3.2 -4.5 v3" stroke-width=".75"></path><rect x="-8.6" y="-0.4" width="9.6" height="3.7" rx="1.85" fill="#F2EFE6"></rect><path d="M-5 -2.5 Q-4 -4.6 -1.8 -5" stroke="#fff" stroke-width="1.2" fill="none" stroke-linecap="round"></path></g>
    <g display="none" stroke="#0A0A0B" stroke-width=".8"><rect x="-9.8" y="-17" width="3.8" height="13" rx="1.9" transform="rotate(-6 -8 -4)" fill="#F2EFE6"></rect><circle cx="-4.4" cy="-5.6" r="2.1" fill="#F2EFE6"></circle><circle cx="-1.4" cy="-6.3" r="2.1" fill="#F2EFE6"></circle><circle cx="1.7" cy="-6.2" r="2.1" fill="#F2EFE6"></circle><circle cx="4.6" cy="-5.4" r="2" fill="#D9D4C8"></circle><rect x="-6.8" y="-6.5" width="13.6" height="13" rx="5.2" fill="#F2EFE6"></rect><path d="M3.4 -3.5 Q6 -1 5.2 4" stroke="#D2CDC1" stroke-width="2.4" fill="none" stroke-linecap="round"></path><path d="M-2.9 -4.6 v3 M0.2 -4.9 v3.2 M3.2 -4.5 v3" stroke-width=".75"></path><path d="M-5 -2.5 Q-4 -4.6 -1.8 -5" stroke="#fff" stroke-width="1.2" fill="none" stroke-linecap="round"></path></g>
  </g>
</g></svg>